<?xml version="1.0" encoding="UTF-8"?><svg id="Camada_2" xmlns="http://www.w3.org/2000/svg" viewBox="0 0 794.69 410.84"><defs><style>.cls-1{fill:#3c3c3b;}.cls-2{fill:#eb974e;}</style></defs><g id="Camada_1-2"><g><g><path class="cls-1" d="M0,183.26L133.93,17.67H2.22V.36H156.39V15.72L24.12,181.31H156.11v17.31H0v-15.36Z"/><path class="cls-1" d="M263.7,198.62c-13.68,0-26.2-2.8-37.57-8.42-11.37-5.61-21.12-13.06-29.25-22.34-8.14-9.28-14.42-19.9-18.85-31.86-4.44-11.95-6.65-24.18-6.65-36.69s2.36-25.56,7.07-37.52c4.71-11.95,11.23-22.53,19.55-31.72,8.32-9.19,18.11-16.5,29.39-21.93,11.27-5.42,23.47-8.14,36.6-8.14s26.2,2.9,37.57,8.69c11.37,5.79,21.07,13.38,29.11,22.76,8.04,9.38,14.28,20,18.72,31.86,4.44,11.86,6.66,23.96,6.66,36.28,0,13.06-2.36,25.56-7.07,37.52-4.71,11.96-11.19,22.48-19.41,31.59-8.23,9.1-17.98,16.37-29.25,21.79-11.28,5.43-23.48,8.14-36.6,8.14Zm-72.92-99.31c0,10.67,1.75,20.92,5.27,30.76,3.51,9.84,8.5,18.58,14.97,26.2,6.47,7.63,14.14,13.7,23.02,18.21,8.87,4.51,18.76,6.76,29.67,6.76s21.16-2.39,30.22-7.17c9.06-4.78,16.73-11.03,23.01-18.76,6.28-7.72,11.13-16.46,14.56-26.2,3.42-9.75,5.13-19.68,5.13-29.79,0-10.66-1.8-20.92-5.41-30.76-3.6-9.84-8.64-18.53-15.11-26.07-6.47-7.54-14.14-13.56-23.01-18.07-8.87-4.5-18.67-6.76-29.39-6.76s-21.17,2.35-30.22,7.03c-9.06,4.69-16.73,10.9-23.02,18.62-6.29,7.72-11.14,16.46-14.56,26.21-3.42,9.75-5.13,19.68-5.13,29.79Z"/><path class="cls-1" d="M471.93,198.62c-13.68,0-26.2-2.8-37.57-8.42-11.37-5.61-21.12-13.06-29.25-22.34-8.14-9.28-14.42-19.9-18.85-31.86-4.44-11.95-6.65-24.18-6.65-36.69s2.36-25.56,7.07-37.52c4.71-11.95,11.23-22.53,19.55-31.72,8.32-9.19,18.11-16.5,29.39-21.93,11.27-5.42,23.47-8.14,36.6-8.14s26.2,2.9,37.57,8.69c11.37,5.79,21.07,13.38,29.11,22.76,8.04,9.38,14.28,20,18.72,31.86,4.44,11.86,6.66,23.96,6.66,36.28,0,13.06-2.36,25.56-7.07,37.52-4.71,11.96-11.19,22.48-19.41,31.59-8.23,9.1-17.98,16.37-29.25,21.79-11.28,5.43-23.48,8.14-36.6,8.14Zm-72.92-99.31c0,10.67,1.75,20.92,5.27,30.76,3.51,9.84,8.5,18.58,14.97,26.2,6.47,7.63,14.14,13.7,23.02,18.21,8.87,4.51,18.76,6.76,29.67,6.76s21.16-2.39,30.22-7.17c9.06-4.78,16.73-11.03,23.01-18.76,6.28-7.72,11.13-16.46,14.56-26.2,3.42-9.75,5.13-19.68,5.13-29.79,0-10.66-1.8-20.92-5.41-30.76-3.6-9.84-8.64-18.53-15.11-26.07-6.47-7.54-14.14-13.56-23.01-18.07-8.87-4.5-18.67-6.76-29.39-6.76s-21.17,2.35-30.22,7.03c-9.06,4.69-16.73,10.9-23.02,18.62-6.29,7.72-11.14,16.46-14.56,26.21-3.42,9.75-5.13,19.68-5.13,29.79Z"/><path class="cls-1" d="M775.28,198.62V35.82l-71.82,125.94h-11.37l-71.82-125.94V198.62h-19.41V.36h19.96l76.81,135.71L775,.36h19.69V198.62h-19.41Z"/></g><g><path class="cls-2" d="M241.84,282.64v-15.2h10.34v15.2h-10.34Zm0,95.77v-79.2h10.34v79.2h-10.34Z"/><path class="cls-2" d="M341.55,378.41h-10.34v-44.23c0-9.43-1.39-16.27-4.18-20.52-2.79-4.26-7.07-6.38-12.84-6.38-3.04,0-6.08,.56-9.12,1.67-3.04,1.12-5.85,2.69-8.44,4.71-2.58,2.03-4.89,4.43-6.92,7.22-2.03,2.79-3.5,5.8-4.41,9.05v48.49h-10.34v-79.2h9.42v17.94c3.24-5.78,7.88-10.44,13.91-13.99,6.03-3.55,12.59-5.32,19.69-5.32,4.36,0,8.06,.81,11.1,2.43,3.04,1.62,5.47,3.9,7.3,6.84,1.82,2.94,3.14,6.54,3.95,10.79,.81,4.26,1.22,8.97,1.22,14.14v46.36Z"/><path class="cls-2" d="M396.12,379.93c-5.47,0-10.54-1.14-15.2-3.42-4.66-2.28-8.66-5.29-12.01-9.05-3.34-3.75-5.95-8.08-7.83-13-1.88-4.91-2.81-10.06-2.81-15.43s.91-10.87,2.74-15.88c1.82-5.02,4.33-9.4,7.52-13.15,3.19-3.75,6.99-6.71,11.4-8.89,4.41-2.18,9.25-3.27,14.52-3.27,6.69,0,12.62,1.75,17.79,5.24,5.17,3.5,9.22,7.73,12.16,12.69v-48.34h10.34v97.59c0,2.84,1.22,4.26,3.65,4.26v9.12c-1.52,.3-2.74,.46-3.65,.46-2.43,0-4.56-.78-6.38-2.36-1.82-1.57-2.74-3.47-2.74-5.7v-7.75c-3.14,5.17-7.4,9.27-12.77,12.31-5.37,3.04-10.94,4.56-16.72,4.56Zm2.28-9.12c2.53,0,5.24-.51,8.13-1.52,2.89-1.01,5.6-2.41,8.13-4.18,2.53-1.77,4.69-3.85,6.46-6.23,1.77-2.38,2.86-4.94,3.27-7.68v-24.47c-1.01-2.74-2.48-5.29-4.41-7.68-1.93-2.38-4.13-4.48-6.61-6.31-2.48-1.82-5.14-3.24-7.98-4.26-2.84-1.01-5.62-1.52-8.36-1.52-4.26,0-8.11,.91-11.55,2.74-3.45,1.82-6.41,4.23-8.89,7.22-2.48,2.99-4.38,6.41-5.7,10.26-1.32,3.85-1.98,7.8-1.98,11.86,0,4.26,.76,8.31,2.28,12.16,1.52,3.85,3.6,7.22,6.23,10.11,2.63,2.89,5.75,5.19,9.35,6.92,3.6,1.72,7.47,2.58,11.63,2.58Z"/><path class="cls-2" d="M482.92,379.93c-8.61,0-15.03-2.86-19.23-8.59-4.21-5.72-6.31-14.26-6.31-25.61v-46.51h10.34v44.69c0,17.94,6.13,26.91,18.39,26.91,3.04,0,6.03-.51,8.97-1.52,2.94-1.01,5.65-2.48,8.13-4.41,2.48-1.92,4.71-4.2,6.69-6.84,1.98-2.63,3.57-5.62,4.79-8.97v-49.86h10.34v65.82c0,2.84,1.22,4.26,3.65,4.26v9.12c-1.22,.2-2.2,.3-2.96,.3h-1.6c-2.43-.1-4.41-.96-5.93-2.58-1.52-1.62-2.28-3.8-2.28-6.54v-9.12c-3.45,6.18-8.13,10.97-14.06,14.37-5.93,3.4-12.24,5.09-18.92,5.09Z"/><path class="cls-2" d="M574.73,379.93c-6.18,0-12.21-1.01-18.09-3.04-5.88-2.03-10.94-4.96-15.2-8.82l4.71-6.99c4.46,3.65,8.99,6.38,13.6,8.21,4.61,1.82,9.55,2.74,14.82,2.74,6.38,0,11.48-1.29,15.28-3.88,3.8-2.58,5.7-6.26,5.7-11.02,0-2.23-.51-4.08-1.52-5.55-1.01-1.47-2.51-2.76-4.48-3.88-1.98-1.11-4.46-2.1-7.45-2.96-2.99-.86-6.46-1.75-10.41-2.66-4.56-1.11-8.51-2.23-11.86-3.34-3.34-1.11-6.11-2.38-8.28-3.8-2.18-1.42-3.8-3.17-4.86-5.24-1.06-2.08-1.6-4.69-1.6-7.83,0-3.95,.78-7.45,2.36-10.49,1.57-3.04,3.7-5.55,6.38-7.52,2.68-1.98,5.83-3.47,9.42-4.48,3.6-1.01,7.42-1.52,11.48-1.52,6.08,0,11.6,.99,16.57,2.96,4.96,1.98,8.97,4.59,12.01,7.83l-5.02,6.08c-2.94-3.04-6.51-5.32-10.72-6.84-4.21-1.52-8.59-2.28-13.15-2.28-2.74,0-5.27,.28-7.6,.84-2.33,.56-4.38,1.44-6.16,2.66-1.77,1.22-3.17,2.76-4.18,4.64-1.01,1.88-1.52,4.08-1.52,6.61,0,2.13,.35,3.85,1.06,5.17,.71,1.32,1.87,2.46,3.5,3.42,1.62,.96,3.67,1.82,6.16,2.58,2.48,.76,5.5,1.55,9.04,2.36,5.07,1.22,9.52,2.43,13.38,3.65,3.85,1.22,7.07,2.64,9.65,4.26,2.58,1.62,4.53,3.6,5.85,5.93,1.32,2.33,1.98,5.17,1.98,8.51,0,7.3-2.79,13.07-8.36,17.33-5.57,4.26-13.07,6.38-22.5,6.38Z"/><path class="cls-2" d="M660.47,374.61c-.61,.3-1.5,.71-2.66,1.22-1.17,.51-2.51,1.02-4.03,1.52-1.52,.51-3.24,.96-5.17,1.37-1.93,.4-3.95,.61-6.08,.61s-4.36-.3-6.38-.91c-2.03-.61-3.8-1.54-5.32-2.81-1.52-1.27-2.74-2.86-3.65-4.79-.91-1.92-1.37-4.15-1.37-6.69v-58.29h-10.94v-8.21h10.94v-25.17h10.34v25.17h18.24v8.21h-18.24v55.4c.2,2.94,1.24,5.09,3.12,6.46,1.87,1.37,4.03,2.05,6.46,2.05,2.94,0,5.52-.48,7.75-1.44,2.23-.96,3.65-1.65,4.26-2.05l2.74,8.36Z"/><path class="cls-2" d="M712.91,306.75c-6.99,.2-13.07,2.13-18.24,5.78-5.17,3.65-8.82,8.66-10.94,15.05v52.12h-10.34v-82.07h9.73v19c2.94-6.08,6.89-10.84,11.86-14.29,4.96-3.44,10.28-5.17,15.96-5.17,.81,0,1.47,.05,1.98,.15v9.43Z"/><path class="cls-2" d="M731.3,401.26c.81,.1,1.6,.18,2.36,.23,.76,.05,1.49,.08,2.2,.08,1.82,0,3.27-.25,4.33-.76,1.06-.51,2.1-1.62,3.12-3.34,1.01-1.73,2.15-4.21,3.42-7.45,1.27-3.24,3.06-7.6,5.4-13.07l-34.51-79.2h10.64l29.34,69.62,27.21-69.62h9.88l-41.04,102.15c-1.12,2.94-2.96,5.5-5.55,7.68-2.58,2.18-6.11,3.27-10.56,3.27-1.01,0-1.98-.03-2.89-.08-.91-.05-2.03-.18-3.34-.38v-9.12Z"/></g><g><path class="cls-1" d="M308.98,274.16h0c-6.71-26.4-13.96-40.76-19.07-48.3-1.54-1.91-3.64-3.09-5.86-3.64-.08-.02-.16-.03-.23-.05-.58-.13-1.15-.23-1.73-.27-.2-.02-.41,0-.62-.01-.5-.01-1,0-1.49,.05-.19,.02-.38,.06-.57,.09-.51,.08-1.01,.2-1.49,.35-.22,.07-.43,.15-.64,.24-.34,.14-.67,.28-.99,.46-.22,.11-.45,.18-.67,.31-1.84,1.09-3.22,2.64-4.14,4.4-.03,.05-.05,.09-.08,.13-.1,.19-.18,.38-.26,.57-.19,.41-.35,.85-.48,1.33-.83,2.83-.55,5.98,1.07,8.72l.14,.24c.78,1.76,1.85,3.7,3.39,5.88,9.43,13.4,28.61,26.8,33.14,30.01,.29,.13,.43,0,.43,0,.29-.21,.15-.5,.15-.5Z"/><path class="cls-1" d="M390.25,249.75c-1.35-2.16-3.34-3.65-5.56-4.46-.34-.14-.71-.26-1.09-.36-.12-.03-.23-.07-.35-.1-.51-.11-1.06-.19-1.64-.21-.38-.03-.77-.01-1.16,0-.04,0-.08,0-.11,0-1.29,.06-2.56,.34-3.79,.86-2.25,.8-4.84,2.19-7.85,4.47-13.07,9.88-25.82,29.5-28.87,34.14-.12,.29,.02,.43,.02,.43,.22,.28,.51,.13,.51,.13h0c18.5-5.36,30.88-10.79,39.21-15.41,.46-.21,.93-.4,1.37-.68l5.82-3.57c5.18-3.25,6.74-10.08,3.5-15.25Z"/><path class="cls-1" d="M347.89,229.27c.02-.51,.04-1.02-.01-1.52-.03-.37-.11-.73-.18-1.09-.06-.27-.09-.54-.17-.81-.68-2.55-2.27-4.77-4.49-6.27-.11-.08-.22-.16-.34-.23-.43-.26-.88-.49-1.34-.7-.14-.06-.28-.12-.42-.17-.28-.11-.53-.26-.82-.34-1.66-.5-3.33-.55-4.93-.29-1.61,.18-3.39,.77-5.1,2.22-.1,.08-.2,.17-.29,.25-.19,.18-.39,.37-.58,.57-.88,.87-1.62,1.88-2.18,3.03-1.14,2.05-2.17,4.72-2.96,8.28-3.54,16-.51,39.2,.18,44.71,.09,.3,.29,.31,.29,.31,.35,.07,.47-.23,.47-.23h0c10.96-16.64,16.93-29.13,20.19-38.12,.06-.18,.16-.34,.22-.52l.16-.5c.67-1.9,1.18-3.59,1.62-5.16l.26-.83c.05-.16,.05-.32,.09-.48,.09-.33,.2-.72,.28-1.04,.03-.18,0-.35,.02-.52,.02-.19,.02-.37,.03-.56Z"/></g></g></g></svg>