<?xml version="1.0" encoding="UTF-8"?><svg id="Camada_2" xmlns="http://www.w3.org/2000/svg" viewBox="0 0 1256.49 194.66"><defs><style>.cls-1{fill:#3c3c3b;}.cls-2{fill:#eb974e;}</style></defs><g id="Camada_1-2"><g><g><g><path class="cls-1" d="M0,148.93L109.05,14.1H1.8V0H127.35V12.51L19.64,147.34H127.12v14.1H0v-12.51Z"/><path class="cls-1" d="M214.73,161.44c-11.14,0-21.34-2.28-30.59-6.84-9.26-4.56-17.2-10.61-23.82-18.16-6.63-7.55-11.74-16.18-15.36-25.9-3.61-9.72-5.42-19.66-5.42-29.82s1.92-20.78,5.76-30.49c3.84-9.71,9.14-18.31,15.92-25.79,6.77-7.47,14.75-13.41,23.93-17.83,9.18-4.41,19.12-6.61,29.81-6.61s21.34,2.35,30.59,7.06c9.25,4.71,17.16,10.88,23.71,18.5,6.55,7.62,11.63,16.26,15.24,25.9,3.61,9.64,5.42,19.47,5.42,29.48,0,10.62-1.92,20.78-5.76,30.49-3.84,9.72-9.11,18.27-15.81,25.67-6.7,7.4-14.64,13.31-23.82,17.71-9.18,4.41-19.12,6.61-29.8,6.61Zm-59.38-80.72c0,8.67,1.43,17.01,4.29,25,2.86,8,6.92,15.1,12.19,21.3,5.27,6.2,11.52,11.14,18.74,14.8,7.23,3.66,15.28,5.49,24.16,5.49s17.23-1.94,24.61-5.83c7.37-3.89,13.62-8.97,18.74-15.25,5.12-6.28,9.07-13.38,11.85-21.3,2.78-7.92,4.18-15.99,4.18-24.22,0-8.67-1.47-17-4.41-25-2.93-7.99-7.04-15.06-12.3-21.19-5.27-6.13-11.52-11.02-18.74-14.69-7.22-3.66-15.21-5.49-23.93-5.49s-17.24,1.9-24.61,5.72c-7.38,3.81-13.62,8.86-18.74,15.14-5.12,6.28-9.07,13.38-11.85,21.3-2.79,7.92-4.18,16-4.18,24.22Z"/><path class="cls-1" d="M384.29,161.44c-11.14,0-21.34-2.28-30.59-6.84-9.26-4.56-17.2-10.61-23.82-18.16-6.63-7.55-11.74-16.18-15.36-25.9-3.61-9.72-5.42-19.66-5.42-29.82s1.92-20.78,5.76-30.49c3.84-9.71,9.14-18.31,15.92-25.79,6.77-7.47,14.75-13.41,23.93-17.83,9.18-4.41,19.12-6.61,29.81-6.61s21.34,2.35,30.59,7.06c9.25,4.71,17.16,10.88,23.71,18.5,6.55,7.62,11.63,16.26,15.24,25.9,3.61,9.64,5.42,19.47,5.42,29.48,0,10.62-1.92,20.78-5.76,30.49-3.84,9.72-9.11,18.27-15.81,25.67-6.7,7.4-14.64,13.31-23.82,17.71-9.18,4.41-19.12,6.61-29.8,6.61Zm-59.38-80.72c0,8.67,1.43,17.01,4.29,25,2.86,8,6.92,15.1,12.19,21.3,5.27,6.2,11.52,11.14,18.74,14.8,7.23,3.66,15.28,5.49,24.16,5.49s17.23-1.94,24.61-5.83c7.37-3.89,13.62-8.97,18.74-15.25,5.12-6.28,9.07-13.38,11.85-21.3,2.78-7.92,4.18-15.99,4.18-24.22,0-8.67-1.47-17-4.41-25-2.93-7.99-7.04-15.06-12.3-21.19-5.27-6.13-11.52-11.02-18.74-14.69-7.22-3.66-15.21-5.49-23.93-5.49s-17.24,1.9-24.61,5.72c-7.38,3.81-13.62,8.86-18.74,15.14-5.12,6.28-9.07,13.38-11.85,21.3-2.79,7.92-4.18,16-4.18,24.22Z"/><path class="cls-1" d="M620.69,160.31V28.68l-58.48,101.83h-9.26l-58.48-101.83V160.31h-15.81V0h16.26l62.55,109.73L620.47,0h16.03V160.31h-15.81Z"/></g><g><path class="cls-1" d="M762.07,54.67h0c-5.48-21.59-11.42-33.33-15.59-39.5-1.26-1.57-2.98-2.53-4.79-2.98-.06-.02-.13-.02-.19-.04-.47-.11-.94-.19-1.41-.22-.17-.01-.33,0-.5-.01-.41,0-.82,0-1.22,.04-.16,.02-.31,.05-.46,.08-.42,.07-.83,.16-1.22,.29-.18,.06-.35,.13-.53,.19-.28,.11-.55,.23-.81,.37-.18,.09-.37,.15-.54,.25-1.51,.89-2.63,2.16-3.39,3.6-.02,.04-.04,.07-.07,.11-.08,.15-.15,.31-.22,.47-.15,.34-.29,.7-.39,1.09-.68,2.32-.45,4.89,.88,7.13l.11,.19c.64,1.44,1.52,3.03,2.77,4.81,7.71,10.96,23.4,21.92,27.1,24.54,.24,.11,.35,0,.35,0,.24-.17,.12-.41,.12-.41Z"/><path class="cls-1" d="M828.54,34.7c-1.11-1.77-2.74-2.98-4.55-3.65-.28-.11-.58-.21-.89-.3-.1-.02-.19-.06-.29-.08-.42-.09-.87-.15-1.34-.17-.31-.02-.63,0-.95,0-.03,0-.06,0-.09,0-1.05,.05-2.1,.27-3.1,.7-1.84,.66-3.96,1.79-6.42,3.66-10.69,8.08-21.11,24.12-23.61,27.92-.1,.24,.02,.35,.02,.35,.18,.23,.42,.11,.42,.11h0c15.13-4.39,25.26-8.83,32.06-12.6,.38-.17,.76-.33,1.12-.56l4.76-2.92c4.24-2.66,5.51-8.24,2.86-12.47Z"/><path class="cls-1" d="M793.89,17.96c.02-.42,.03-.83,0-1.24-.03-.3-.09-.6-.15-.89-.05-.22-.07-.44-.14-.66-.56-2.08-1.85-3.9-3.67-5.13-.09-.06-.18-.13-.28-.19-.35-.22-.72-.4-1.1-.57-.11-.05-.23-.1-.34-.14-.23-.09-.44-.21-.67-.28-1.36-.41-2.72-.45-4.03-.24-1.32,.14-2.77,.63-4.17,1.81-.08,.07-.16,.14-.24,.21-.16,.15-.32,.3-.47,.47-.72,.71-1.33,1.53-1.78,2.48-.94,1.67-1.77,3.86-2.42,6.77-2.89,13.08-.42,32.06,.15,36.56,.08,.25,.24,.26,.24,.26,.28,.06,.39-.19,.39-.19h0c8.96-13.61,13.85-23.82,16.51-31.17,.05-.15,.13-.27,.18-.42l.13-.41c.54-1.55,.96-2.93,1.32-4.22l.21-.68c.04-.13,.04-.26,.08-.39,.07-.27,.17-.59,.23-.85,.02-.14,0-.28,.02-.43,.02-.16,.01-.31,.02-.46Z"/></g></g><g><path class="cls-2" d="M688.97,61.56v-15.6h10.61v15.6h-10.61Zm0,98.31V78.57h10.61v81.3h-10.61Z"/><path class="cls-2" d="M791.33,159.86h-10.61v-45.41c0-9.68-1.43-16.7-4.29-21.07-2.86-4.37-7.26-6.55-13.19-6.55-3.12,0-6.24,.57-9.36,1.72-3.12,1.15-6.01,2.76-8.66,4.84-2.65,2.08-5.02,4.55-7.1,7.41-2.08,2.86-3.59,5.96-4.53,9.29v49.78h-10.61V78.57h9.67v18.41c3.33-5.93,8.09-10.71,14.28-14.36,6.19-3.64,12.92-5.46,20.21-5.46,4.47,0,8.27,.83,11.39,2.5,3.12,1.66,5.62,4.01,7.49,7.02,1.87,3.02,3.22,6.71,4.06,11.08,.83,4.37,1.25,9.21,1.25,14.51v47.59Z"/><path class="cls-2" d="M847.35,161.42c-5.62,0-10.82-1.17-15.6-3.51-4.79-2.34-8.89-5.44-12.33-9.29-3.43-3.85-6.11-8.29-8.04-13.34-1.93-5.04-2.89-10.32-2.89-15.84s.94-11.16,2.81-16.31c1.87-5.15,4.45-9.65,7.72-13.5,3.28-3.85,7.18-6.89,11.7-9.13,4.53-2.24,9.49-3.35,14.9-3.35,6.87,0,12.95,1.79,18.26,5.38,5.31,3.59,9.47,7.93,12.48,13.03V45.95h10.61v100.18c0,2.91,1.25,4.37,3.74,4.37v9.36c-1.56,.31-2.81,.47-3.74,.47-2.5,0-4.68-.81-6.55-2.42-1.87-1.61-2.81-3.56-2.81-5.85v-7.96c-3.23,5.31-7.59,9.52-13.11,12.64-5.52,3.12-11.24,4.68-17.16,4.68Zm2.34-9.36c2.6,0,5.38-.52,8.35-1.56,2.96-1.04,5.75-2.47,8.35-4.29,2.6-1.82,4.81-3.95,6.63-6.4,1.82-2.44,2.94-5.07,3.35-7.88v-25.12c-1.04-2.81-2.55-5.44-4.53-7.88-1.98-2.44-4.24-4.6-6.79-6.48-2.55-1.87-5.28-3.33-8.19-4.37-2.91-1.04-5.77-1.56-8.58-1.56-4.37,0-8.32,.94-11.86,2.81-3.54,1.87-6.58,4.34-9.13,7.41-2.55,3.07-4.5,6.58-5.85,10.53-1.35,3.95-2.03,8.01-2.03,12.17,0,4.37,.78,8.53,2.34,12.48,1.56,3.95,3.69,7.41,6.4,10.38,2.7,2.96,5.9,5.33,9.6,7.1,3.69,1.77,7.67,2.65,11.94,2.65Z"/><path class="cls-2" d="M936.45,161.42c-8.84,0-15.42-2.94-19.74-8.82-4.32-5.88-6.48-14.64-6.48-26.29v-47.75h10.61v45.88c0,18.41,6.29,27.62,18.88,27.62,3.12,0,6.19-.52,9.21-1.56,3.02-1.04,5.8-2.55,8.35-4.53,2.55-1.98,4.84-4.32,6.87-7.02,2.03-2.7,3.67-5.77,4.92-9.21v-51.18h10.61v67.57c0,2.91,1.25,4.37,3.75,4.37v9.36c-1.25,.21-2.26,.31-3.04,.31h-1.64c-2.5-.1-4.53-.99-6.09-2.65-1.56-1.66-2.34-3.9-2.34-6.71v-9.36c-3.54,6.35-8.35,11.26-14.43,14.75-6.09,3.49-12.56,5.23-19.43,5.23Z"/><path class="cls-2" d="M1030.7,161.42c-6.35,0-12.54-1.04-18.57-3.12-6.03-2.08-11.24-5.1-15.6-9.05l4.84-7.18c4.58,3.75,9.23,6.55,13.97,8.43,4.73,1.87,9.8,2.81,15.21,2.81,6.55,0,11.78-1.33,15.68-3.98,3.9-2.65,5.85-6.42,5.85-11.31,0-2.29-.52-4.19-1.56-5.7-1.04-1.51-2.57-2.83-4.6-3.98-2.03-1.14-4.58-2.16-7.65-3.04-3.07-.88-6.63-1.79-10.69-2.73-4.68-1.14-8.74-2.29-12.17-3.43-3.43-1.14-6.27-2.44-8.5-3.9-2.24-1.46-3.9-3.25-4.99-5.38-1.09-2.13-1.64-4.81-1.64-8.04,0-4.06,.8-7.65,2.42-10.77,1.61-3.12,3.8-5.69,6.55-7.72,2.76-2.03,5.98-3.56,9.67-4.6,3.69-1.04,7.62-1.56,11.78-1.56,6.24,0,11.91,1.01,17.01,3.04,5.1,2.03,9.21,4.71,12.33,8.04l-5.15,6.24c-3.02-3.12-6.69-5.46-11-7.02-4.32-1.56-8.82-2.34-13.5-2.34-2.81,0-5.41,.29-7.8,.86-2.39,.57-4.5,1.48-6.32,2.73-1.82,1.25-3.25,2.84-4.29,4.76-1.04,1.93-1.56,4.19-1.56,6.79,0,2.19,.36,3.95,1.09,5.31,.73,1.35,1.92,2.52,3.59,3.51,1.66,.99,3.77,1.87,6.32,2.65,2.55,.78,5.64,1.59,9.28,2.42,5.2,1.25,9.78,2.5,13.73,3.74,3.95,1.25,7.26,2.71,9.91,4.37,2.65,1.67,4.65,3.69,6.01,6.09,1.35,2.39,2.03,5.31,2.03,8.74,0,7.49-2.86,13.42-8.58,17.79-5.72,4.37-13.42,6.55-23.09,6.55Z"/><path class="cls-2" d="M1118.71,155.96c-.62,.31-1.54,.73-2.73,1.25-1.2,.52-2.57,1.04-4.14,1.56-1.56,.52-3.33,.99-5.31,1.4-1.98,.41-4.06,.62-6.24,.62s-4.47-.31-6.55-.94c-2.08-.62-3.9-1.59-5.46-2.89-1.56-1.3-2.81-2.94-3.74-4.92-.94-1.97-1.4-4.26-1.4-6.87v-58.21h-11.24v-8.43h11.24v-27.46h10.61v27.46h18.73v8.43h-18.73v55.24c.21,3.02,1.27,5.23,3.2,6.63,1.92,1.4,4.14,2.11,6.63,2.11,3.02,0,5.67-.49,7.96-1.48,2.29-.99,3.74-1.69,4.37-2.11l2.81,8.58Z"/><path class="cls-2" d="M1172.54,87.93c-7.18,.21-13.42,2.18-18.73,5.93-5.31,3.75-9.05,8.89-11.24,15.45v50.56h-10.61V78.57h9.99v19.5c3.02-6.24,7.07-11.13,12.17-14.67,5.1-3.54,10.56-5.31,16.38-5.31,.83,0,1.51,.05,2.03,.16v9.68Z"/><path class="cls-2" d="M1191.42,184.83c.83,.1,1.64,.18,2.42,.23,.78,.05,1.53,.08,2.26,.08,1.87,0,3.35-.26,4.45-.78,1.09-.52,2.16-1.67,3.2-3.43,1.04-1.77,2.21-4.32,3.51-7.65,1.3-3.33,3.15-7.8,5.54-13.42l-35.42-81.3h10.92l30.12,71.47,27.93-71.47h10.14l-42.13,104.86c-1.15,3.02-3.04,5.64-5.7,7.88-2.65,2.24-6.27,3.35-10.85,3.35-1.04,0-2.03-.03-2.96-.08-.94-.05-2.08-.18-3.43-.39v-9.36Z"/></g></g></g></svg>